<svg width="114" height="40" viewBox="0 0 114 40" fill="none" xmlns="http://www.w3.org/2000/svg">
<path d="M20 0C9 0 0 9 0 20C0 31 9 40 20 40C31 40 40 31 40 20C40 9 31 0 20 0ZM11.8 27.5C9.6 27.5 7.8 25.7 7.8 23.5C7.8 21.3 9.6 19.5 11.8 19.5C14 19.5 15.8 21.3 15.8 23.5C15.8 25.7 14 27.5 11.8 27.5ZM28.5 26.4C26.7 27.5 24.3 26.8 23.2 25L17.6 15.3C16.5 13.5 17.2 11.1 19 10C20.8 8.9 23.2 9.6 24.3 11.4L29.9 21.1C31 23 30.3 25.4 28.5 26.4Z" fill="#232E35"/>
<path d="M56.3 28.5001H59.8L61.1 24.7001H68L69.3 28.5001H72.9001L66.7 10.6001H62.5L56.3 28.5001ZM62 21.8001L64.5 14.3001L67 21.8001H62Z" fill="#232E35"/>
<path d="M74.5 28.5H77.6V10.3H74.5V28.5Z" fill="#232E35"/>
<path d="M86.8 28.7999C88.1 28.7999 89.3 28.5 90.3 27.9C91.3 27.3 92 26.5 92.4 25.6L89.9 24.4C89.6 24.9 89.2 25.3 88.7 25.6C88.2 25.9 87.6 26.1 86.9 26.1C86 26.1 85.2 25.8 84.5 25.2C83.8 24.6 83.5 23.9 83.4 22.9H92.8C92.9 22.7 92.9 22.4999 92.9 22.2999C92.9 22.0999 92.9 21.8 92.9 21.6C92.9 20.4 92.7 19.4 92.2 18.4C91.7 17.4 91 16.7 90 16.1C89.1 15.5 87.9 15.2 86.5 15.2C85.3 15.2 84.2 15.5 83.2 16.1C82.2 16.7 81.4 17.5 80.9 18.5C80.3 19.5 80.1 20.7 80.1 22C80.1 23.3 80.4 24.4 80.9 25.5C81.5 26.5 82.2 27.4 83.3 28C84.3 28.5 85.4 28.7999 86.8 28.7999ZM86.5 17.7C87.3 17.7 88 18 88.6 18.5C89.2 19 89.5 19.6 89.5 20.4H83.4C83.6 19.5 83.9 18.9 84.5 18.4C85.1 18 85.8 17.7 86.5 17.7Z" fill="#232E35"/>
<path d="M93.9 28.4999H97.6L100.3 24.3999L103 28.4999H106.7L102.2 21.8999L106.8 15.3999H103.1L100.4 19.4999L97.6 15.3999H93.9L98.5 21.8999L93.9 28.4999Z" fill="#232E35"/>
<path d="M109.9 28.5001H113.1V25.1001H109.9V28.5001Z" fill="#232E35"/>
</svg>
